<svg xmlns="http://www.w3.org/2000/svg" viewBox="0 0 100 100">
	<!-- Dark background -->
	<rect width="100" height="100" fill="#0a0a0a"/>
	
	<!-- Flame effect background -->
	<circle cx="50" cy="50" r="45" fill="url(#flame)" opacity="0.3"/>
	
	<!-- Skull outline -->
	<ellipse cx="50" cy="45" rx="28" ry="32" fill="#1a1a1a" stroke="#ff3300" stroke-width="2"/>
	
	<!-- Eye sockets with red glow -->
	<ellipse cx="40" cy="40" rx="6" ry="8" fill="#000"/>
	<ellipse cx="60" cy="40" rx="6" ry="8" fill="#000"/>
	<circle cx="40" cy="40" r="3" fill="#ff0000" opacity="0.8"/>
	<circle cx="60" cy="40" r="3" fill="#ff0000" opacity="0.8"/>
	
	<!-- Musical notes integrated -->
	<path d="M 35 65 Q 35 70 30 72 Q 27 73 27 70 Q 27 67 30 66 Q 32 65 35 65 Z" fill="#ff3300"/>
	<rect x="34" y="55" width="2" height="10" fill="#ff3300"/>
	
	<path d="M 70 65 Q 70 70 65 72 Q 62 73 62 70 Q 62 67 65 66 Q 67 65 70 65 Z" fill="#ff3300"/>
	<rect x="69" y="50" width="2" height="15" fill="#ff3300"/>
	<path d="M 69 50 L 75 48 L 75 58 L 69 60 Z" fill="#ff3300"/>
	
	<!-- Lightning bolt accent -->
	<path d="M 50 20 L 45 35 L 50 35 L 48 45 L 55 30 L 50 30 Z" fill="#ffcc00" opacity="0.7"/>
	
	<!-- Gradient definitions -->
	<defs>
		<radialGradient id="flame">
			<stop offset="0%" style="stop-color:#ff6600;stop-opacity:1" />
			<stop offset="100%" style="stop-color:#ff0000;stop-opacity:0" />
		</radialGradient>
	</defs>
</svg>
